<svg width="281" height="24" viewBox="0 0 281 24" fill="none" xmlns="http://www.w3.org/2000/svg">
<path d="M10.6698 23H6.02866C4.22203 23 2.82034 21.6295 2.82034 19.7917V4.37306C2.82034 2.56643 4.22203 1.19589 6.02866 1.19589H10.6698C17.4914 1.19589 22.2571 5.55671 22.2571 12.0979C22.2571 18.6392 17.4914 23 10.6698 23ZM9.20583 7.11415V17.0817H10.701C13.847 17.0817 15.8717 15.244 15.8717 12.0979C15.8717 8.95192 13.847 7.11415 10.701 7.11415H9.20583ZM33.1003 23.3426C27.7739 23.3426 23.9114 19.8851 23.9114 14.2784V4.18617C23.9114 2.28609 25.282 0.915548 27.1198 0.915548C28.9264 0.915548 30.2969 2.28609 30.2969 4.18617V14.3407C30.2969 16.085 31.356 17.3621 33.1003 17.3621C34.8135 17.3621 35.8726 16.085 35.8726 14.3407V4.18617C35.8726 2.28609 37.2431 0.915548 39.0809 0.915548C40.8875 0.915548 42.258 2.28609 42.258 4.18617V14.2784C42.258 19.8851 38.3956 23.3426 33.1003 23.3426ZM47.7242 23.2803C45.7929 23.2803 44.5158 21.8475 44.5158 19.9163V4.06157C44.5158 2.25494 45.8864 0.915548 47.6619 0.915548C49.0324 0.915548 49.9357 1.50737 50.7767 2.59758L56.2901 10.0421C56.8819 10.8208 57.5049 11.6619 58.0655 12.534V4.27961C58.0655 2.34839 59.3426 0.915548 61.2739 0.915548C63.1739 0.915548 64.451 2.34839 64.451 4.27961V20.1343C64.451 21.9409 63.0805 23.2803 61.3362 23.2803C59.9345 23.2803 59.0311 22.6885 58.2213 21.5983L52.6457 14.3407C52.0538 13.5931 51.462 12.7521 50.9013 12.0045V19.9163C50.9013 21.8475 49.6242 23.2803 47.7242 23.2803ZM69.9103 23.2803C68.0726 23.2803 66.702 21.8786 66.702 20.0409V4.15502C66.702 2.31724 68.0726 0.915548 69.9103 0.915548C71.7481 0.915548 73.0875 2.31724 73.0875 4.15502V9.82409C73.617 9.07652 73.9285 8.54699 74.4269 7.76827L77.8533 2.28609C78.4451 1.35163 79.473 0.915548 80.4697 0.915548C82.2452 0.915548 83.7404 2.22379 83.7404 4.18617C83.7404 5.05833 83.2108 5.89935 82.6502 6.70921L79.0058 11.9111L83.0551 17.4867C83.6469 18.2965 84.0207 19.1064 84.0207 19.9163C84.0207 21.7852 82.7436 23.2803 80.6566 23.2803C79.6599 23.2803 78.632 22.9066 77.8844 21.6918L74.4269 16.1161C73.9285 15.3374 73.6482 14.7767 73.0875 14.0603V20.0409C73.0875 21.8786 71.7481 23.2803 69.9103 23.2803ZM88.4767 23.2803C86.6389 23.2803 85.2684 21.8786 85.2684 20.0409V4.15502C85.2684 2.31724 86.6389 0.915548 88.4767 0.915548C90.3144 0.915548 91.6538 2.31724 91.6538 4.15502V20.0409C91.6538 21.8786 90.3144 23.2803 88.4767 23.2803ZM97.1265 23.2803C95.1953 23.2803 93.9182 21.8475 93.9182 19.9163V4.06157C93.9182 2.25494 95.2888 0.915548 97.0642 0.915548C98.4348 0.915548 99.3381 1.50737 100.179 2.59758L105.692 10.0421C106.284 10.8208 106.907 11.6619 107.468 12.534V4.27961C107.468 2.34839 108.745 0.915548 110.676 0.915548C112.576 0.915548 113.853 2.34839 113.853 4.27961V20.1343C113.853 21.9409 112.483 23.2803 110.739 23.2803C109.337 23.2803 108.434 22.6885 107.624 21.5983L102.048 14.3407C101.456 13.5931 100.864 12.7521 100.304 12.0045V19.9163C100.304 21.8475 99.0266 23.2803 97.1265 23.2803Z" fill="#F06000"/>
<path d="M118.911 9.88638C117.727 9.88638 116.918 9.10767 116.762 7.89286C116.637 7.20759 116.575 6.42887 116.575 5.46326C116.575 4.5911 116.637 3.78123 116.793 3.12711C117.011 1.69427 118.07 0.853251 119.472 0.853251C120.998 0.853251 122.306 1.88116 122.306 3.56319C122.306 3.90583 122.213 4.5288 122.088 5.02718L121.403 7.48793C120.967 9.07652 120.219 9.88638 118.911 9.88638ZM143.846 14.8079L146.182 17.7359C146.712 18.3588 147.086 19.1999 147.086 20.1032C147.086 22.0032 145.684 23.2492 143.971 23.2492C142.6 23.2492 141.635 22.4705 140.825 21.2557L137.336 16.1473H136.495V20.0409C136.495 21.8786 135.156 23.2803 133.318 23.2803C131.48 23.2803 130.109 21.8786 130.109 20.0409V4.21731C130.109 2.47298 131.449 1.19589 133.162 1.19589H138.893C143.815 1.19589 146.992 4.37306 146.992 8.73388C146.992 11.3815 145.84 13.5308 143.846 14.8079ZM138.395 6.39772H136.495V11.07H138.395C139.766 11.07 140.793 10.1356 140.793 8.73388C140.793 7.30104 139.766 6.39772 138.395 6.39772ZM162.153 23H152.342C150.628 23 149.289 21.7229 149.289 19.9786V4.21731C149.289 2.47298 150.628 1.19589 152.342 1.19589H162.153C163.773 1.19589 165.05 2.41069 165.05 4.03042C165.05 5.65016 163.773 6.86496 162.153 6.86496H155.675V9.26341H160.16C161.624 9.26341 162.714 10.3536 162.714 11.7865C162.714 13.2193 161.624 14.3095 160.16 14.3095H155.675V17.3309H162.153C163.773 17.3309 165.05 18.5457 165.05 20.1655C165.05 21.7852 163.773 23 162.153 23ZM174.67 23.2492C172.801 23.2492 171.556 22.0655 171.026 20.5081L165.98 5.96164C165.762 5.36982 165.637 4.71569 165.637 4.24846C165.637 2.37954 167.07 0.915548 169.032 0.915548C170.715 0.915548 171.805 1.75656 172.272 3.34515L174.11 9.4503C174.39 10.2913 174.608 11.0077 174.826 11.7553C175.044 11.0077 175.231 10.3848 175.543 9.388L177.225 3.78123C177.816 1.88116 179.031 0.915548 180.744 0.915548C182.426 0.915548 183.641 1.88116 184.233 3.78123L185.915 9.388C186.227 10.3848 186.413 11.0077 186.632 11.7553L187.317 9.4503L189.186 3.34515C189.653 1.75656 190.743 0.915548 192.425 0.915548C194.388 0.915548 195.82 2.37954 195.82 4.24846C195.82 4.71569 195.696 5.36982 195.478 5.96164L190.432 20.5081C189.902 22.0655 188.656 23.2492 186.787 23.2492C184.887 23.2492 183.797 22.2213 183.299 20.5704L180.744 11.5996L178.159 20.5704C177.661 22.2213 176.57 23.2492 174.67 23.2492ZM197.299 23.3426C195.555 23.3426 194.247 21.9098 194.247 20.3212C194.247 19.8851 194.34 19.449 194.527 19.013L201.068 3.71893C201.785 2.0369 202.688 0.915548 204.557 0.915548C206.457 0.915548 207.329 2.0369 208.046 3.71893L214.618 19.013C214.774 19.4179 214.898 19.8851 214.898 20.3212C214.898 21.9098 213.59 23.3426 211.877 23.3426C210.413 23.3426 209.385 22.6262 208.918 21.3491L208.232 19.5113H200.912L200.227 21.3491C199.76 22.6262 198.732 23.3426 197.299 23.3426ZM204.557 9.26341L202.626 14.5898H206.519L204.557 9.26341ZM230.359 14.8079L232.695 17.7359C233.225 18.3588 233.599 19.1999 233.599 20.1032C233.599 22.0032 232.197 23.2492 230.484 23.2492C229.113 23.2492 228.148 22.4705 227.338 21.2557L223.849 16.1473H223.008V20.0409C223.008 21.8786 221.669 23.2803 219.831 23.2803C217.993 23.2803 216.623 21.8786 216.623 20.0409V4.21731C216.623 2.47298 217.962 1.19589 219.675 1.19589H225.407C230.328 1.19589 233.505 4.37306 233.505 8.73388C233.505 11.3815 232.353 13.5308 230.359 14.8079ZM224.908 6.39772H223.008V11.07H224.908C226.279 11.07 227.307 10.1356 227.307 8.73388C227.307 7.30104 226.279 6.39772 224.908 6.39772ZM243.652 23H239.011C237.204 23 235.802 21.6295 235.802 19.7917V4.37306C235.802 2.56643 237.204 1.19589 239.011 1.19589H243.652C250.473 1.19589 255.239 5.55671 255.239 12.0979C255.239 18.6392 250.473 23 243.652 23ZM242.188 7.11415V17.0817H243.683C246.829 17.0817 248.854 15.244 248.854 12.0979C248.854 8.95192 246.829 7.11415 243.683 7.11415H242.188ZM264.464 23.3426C261.287 23.3426 258.733 22.3147 257.113 20.3212C256.459 19.5425 256.148 18.608 256.148 17.7982C256.148 16.1161 257.518 14.6833 259.231 14.6833C260.415 14.6833 261.35 15.2128 262.035 16.2719C262.564 17.1129 263.437 17.767 264.527 17.767C265.492 17.767 266.084 17.2998 266.084 16.5834C266.084 15.7735 265.305 15.244 264.153 14.7767L261.163 13.5619C258.328 12.4094 256.74 10.5405 256.74 7.55023C256.74 3.46974 260.135 0.853251 264.745 0.853251C267.642 0.853251 269.947 1.66312 271.504 3.56319C272.065 4.21731 272.376 4.99603 272.376 5.7436C272.376 7.51908 271.099 8.85848 269.386 8.85848C268.451 8.85848 267.61 8.3601 266.863 7.42563C266.146 6.49117 265.492 5.99279 264.496 5.99279C263.655 5.99279 262.969 6.49117 262.969 7.20759C262.969 7.98631 263.655 8.42239 264.932 8.88962L267.33 9.82409C270.881 11.1635 272.657 12.7521 272.657 16.4276C272.657 20.2278 269.604 23.3426 264.464 23.3426Z" fill="#C63663"/>
<path d="M276.916 23.0798C275.435 23.0798 274.245 21.9111 274.245 20.4593C274.245 19.0075 275.435 17.8388 276.916 17.8388C278.404 17.8388 279.594 19.0075 279.594 20.4593C279.594 21.9111 278.404 23.0798 276.916 23.0798ZM276.916 22.4048C277.99 22.4048 278.861 21.5337 278.861 20.4593C278.861 19.385 277.99 18.5139 276.916 18.5139C275.842 18.5139 274.97 19.385 274.97 20.4593C274.97 21.5337 275.842 22.4048 276.916 22.4048ZM276.299 21.795C276.096 21.795 275.95 21.6498 275.95 21.4321V19.4939C275.95 19.2834 276.103 19.1237 276.321 19.1237H277.09C277.598 19.1237 277.99 19.5012 277.99 20.0238C277.99 20.3505 277.838 20.619 277.605 20.7715L277.939 21.2215C277.99 21.2869 278.027 21.3595 278.027 21.4466C278.027 21.6353 277.896 21.795 277.678 21.795C277.54 21.795 277.439 21.7369 277.366 21.6353L276.836 20.9239H276.655V21.4321C276.655 21.6498 276.509 21.795 276.299 21.795ZM276.655 19.7334V20.3142H276.952C277.126 20.3142 277.25 20.2125 277.25 20.0238C277.25 19.8351 277.126 19.7334 276.952 19.7334H276.655Z" fill="#C63663"/>
</svg>
